<?xml version="1.0" encoding="utf-8"?>
<!-- Generator: Adobe Illustrator 25.2.1, SVG Export Plug-In . SVG Version: 6.00 Build 0)  -->
<svg version="1.1"
	 id="Layer_1" mapsvg:geoViewBox="88.010067 26.635299 92.674283 20.740327" xmlns:dc="http://purl.org/dc/elements/1.1/" xmlns:mapsvg="http://mapsvg.com" xmlns:rdf="http://www.w3.org/1999/02/22-rdf-syntax-ns#" xmlns:svg="http://www.w3.org/2000/svg"
	 xmlns="http://www.w3.org/2000/svg" xmlns:xlink="http://www.w3.org/1999/xlink" x="0px" y="0px" viewBox="0 0 437.8 601.2"
	 style="enable-background:new 0 0 437.8 601.2;" xml:space="preserve">
<style type="text/css">
	.st0{fill:#0FD9F4;}
	.st1{fill:#E8D80F;}
	.st2{fill:#5E4EF4;}
	.st3{fill:#26757F;}
	.st4{fill:#0FEFEF;}
	.st5{fill:#12A030;}
	.st6{fill:#434707;}
</style>
<path id="BD-A" class="st0" d="M241.1,469.4l-1.7,2.4l-5.6,7.1l-0.6-3.3l-0.8-2.9l0.1-0.7l-0.7-2.6l0.9-3.8l4-4.3l0.4-0.4l1.2-2.5
	l2.4-2.3l2.4-0.5l0.3,6.2l-1.1,2.4l-0.2,4L241.1,469.4L241.1,469.4z M247.8,445l-0.4-1.6l0.1-4.1l-0.8,0.5l-0.6,2.7l-1.2,1.9
	l-0.3,2.9l2.4-2.4L247.8,445L247.8,445z M242.1,416.9l-0.3-0.8l-3.9-3.2l-0.7,0.5l1.9,4.3l3.5,2.2l0.3-0.6l-0.1-0.5l0.1-0.7
	l-2.4-0.9l1.4-0.1L242.1,416.9L242.1,416.9z M236.8,406.3l0.7-1.3l0.4,1.3l0.7-0.1l0.2-0.8l-1.7-2.2l-2,0.6l0,2l1.6-0.3l-0.5,0.8
	L236.8,406.3L236.8,406.3z M246.2,453.2l-0.3-3.3l-3.1,0.4l-1.7,5.2l3.4-0.6L246.2,453.2L246.2,453.2z M233,486.9l1.6-1.3l-0.1-0.9
	l-0.7-1.2l-0.8,0.6L233,486.9z M239.1,477.9l0.8-0.4l1.1-1.2l-1.1-0.3l-2.3,2.1L239.1,477.9L239.1,477.9z M196.1,486.4l-2.4,2.2
	l-1.9-0.2l-2.7-2.2l0.6-3.9L189,482l0.7-2.1l3.6-2.1l0.7-1.3l-0.1-2.3l1.6-4l4.6-4.1l1.6-3l2.8,0.8l2.6-1.4l0.9-4.4l1.3-2.6
	l-0.8-3.4l-1-0.3l0.1-3.6l-1.2-4.5l0.3-2.3l0.7-0.7l2.3,0.5l1.2-0.6l1.2-2.2l0.6-4.9l2.7-2.4l0.6-3.4l3.8-0.2l1-1.3l0-1.4l1.3,0.8
	l3.8,0.7l1.1,2.6l1.9-1.6l-1.4-3.7l3.3-2.6l-1.4-4.3l5.9-0.9l5.4,3.8l0.8,1.1l0.6,2.9l1.6,2.7l-1.1,2l-0.5-1.2l0,4.2l3.9,5l-2.6,9.9
	l-1.2,1.9l-5,4.8l-1.4,3.6l-1.7,1.2l-0.6,1.3l-6,7.6l-4-1.1l-1.2,0.5l-4.1,3.3l-2.5,6.9l-1.9-1.2l-2,1.7l-0.7,2.2l-1.5-0.8l-1.1-1.6
	l-2.3-1l-0.2,0.5l-2.9,0.6l-0.9-0.7l-1,0.4l-1.8,2.8l1,2.3l-2.5,0.2l-0.6,0.9l0.2,1.7L196.1,486.4L196.1,486.4z M240.5,385l0.8,0.3
	l1.6,0.1l0.4-2l-2.5,0.8L240.5,385L240.5,385z M241.8,375.7l-2.1-4.3l-0.6-1.2l-2.7,1.1l-0.8-0.3l0.5-0.3l2.6-1.1l0-0.8l-1.9-0.3
	l-1.5,0.7l-2.7,2.3l-0.2,0.1l-4.3,1.3l-1.9,1.3l3.1,0.7l2.7,1.8l1.1,0.8l0.6-0.6l3.5,7l2.8-0.5l1.9-1.7l0.5-1.4L241.8,375.7
	L241.8,375.7z M192.1,476.8l-3.9-0.6l-1.8-1.7l-0.8-3.4l3.8-1.6l0.7-1.8l-0.5-3.7l0.4-2.3l3.7-3.2l-1-1.7l-3.5-1.8l3.9-1.4l1.2-1.3
	l0.7-3.8l1.8-0.9l0.8-1.6l-0.1-2.4l-1.4-3.8l1.8-1.7l2.1-3.6l3.4-3.1l0-2.7l1.8-3.1l0.2-0.8l1.5-1.4l-0.7-1.2l-1.9,0.5l0.5-3.2
	l1.4-2.9l-1.9-1.6l-0.8-3.2l3.1-1.2l2.8,0.7l2.4-1l1.4,0.3l1.2-2.7l3.1,0.2l1,1.6l0.8-0.1l3-5.2l1.3-0.6l-0.3-2.9l1.1-0.1l0.9,1.4
	l2.1-0.5l0.6-0.9l-1-1.2l1.1-1.2l2.1,0.5l2.9,2.9l0.9,2.2l-1,0.9l1-0.2l0.4,10.4l-5.9,1.6l1.1,4.4l-2.4,2l-0.2,1l1.1,2.8l-1.1,1.1
	l-1.2-2l-3.4-0.6l-1.6-1l-0.8,0.2l-0.4,2.2l-1.3,0.6l-1.9-0.5l-1.5,0.5l-0.3,2.7l-3.4,4.1l-0.8,5.5l-0.9,0.4l-1.2-0.5l-2.4,0.9
	l-0.7,1.2l0.9,10l2,3.7l-1.5,2.7l-0.8,3.9l-4.7,0.2l-2.8,3.7l-3.6,2.7l-2,3.6L192.1,476.8L192.1,476.8z M232.2,397.7l-1-1.8
	l-1.2-0.1l0.1,1.3l1.8,1.6L232.2,397.7L232.2,397.7z M246.7,425.4l-2.3,1.1l-2.3,4.5l4.9,5.6l-0.4-3.8l0.6-4l0-0.6l0.3-2.2
	L246.7,425.4L246.7,425.4z M248,477.2l-2.7,4.4l-1.2,4.1l2-0.3l1.4-0.1l2.3-2.9l1.1-1.3l1.5-3.8l-2.3-0.2L248,477.2L248,477.2z
	 M244.1,474l-1.9-2.4l-1.6,1.6l-0.6,2.1l1.7,0.5l0.3,0l1.7,1l1.4-1.2L244.1,474L244.1,474z M239.7,478.3l-3.2,0.5l-2.1,2.9l-0.1,1.5
	l0.8,2.3l5.4,0.7l-0.1-1.3l1.2-1.5l1.4-4.9l0.4-1.2l-1.8-1.3L239.7,478.3L239.7,478.3z M256.5,481.9l-1.5,1.4l-1,2.3l0.4,3.3
	l1.3-0.2l2.4-5l-0.7-1.5L256.5,481.9L256.5,481.9z M262.6,483.5l-1.5,0.1l-1.5,3l1.4,0l-0.1-1.1l1-0.8l0.1,0.9h0.6l0.9-0.8l-0.2-0.7
	L262.6,483.5L262.6,483.5z M248.1,419.9l-2-0.8l-2.2,0.4l-1,1.3l0.5,1.5l1.3,0.8l0.8,1.8l2,0.4l-0.2-2.7l-0.4-1.4l0.4-0.6
	L248.1,419.9L248.1,419.9z M259,419.7l9,11.2l-0.5,3.2l-2,3.5l0.1,10.4l-1.7,11.3l-1.1,2.9l-2.4,3.9l-4.4,3.2l-4.1,4.6l-3.8,1.1
	l-2.3,0.2l-1.2-1.3l-1.8-2.4l-0.3-1.6l2.2-6.7l0.4-7.5l2.4-2.9l2.6-6.2l0.6-5.7l-0.9-3.8l-0.6-16.7l-1.5-2.2l-2.9-1l-0.4,0.5
	l-1.6-0.7l-2.6-3.2l-3.6-1.8l1-1.7l2.9-1.8l0.2-1.8l-0.9-3.1l-0.7-0.4l-1.7-0.1l0.1-3.7l-0.4-0.6l-0.9-0.7l0,4.2l-1,0.5l-2.6-3.7
	l-0.6-3.1l-1.2-1.2l-0.8,0.2l-0.7-2.3l-1,0.2l-1.2,1.7l-0.5,0l0.5,1l0.5,1.5l-1.8,2l1.1,1.4l-1.6,1l-0.8-1.7l-1.3-0.1l-0.5,0.9
	l0.2,2.6l-1,0.6l-3.2,5.3l-1.1-1.6l-3.4-0.4l-1.3,2.8l-1.7-0.4l-1.9,1l-2.8-0.8l-3.4,1.3l0.7,3.8l1.9,1.4l-1.2,1.7l-0.9,4.1l0.6,0.7
	l2-0.5l0.2,0.6l-1.6,1.3l-1.8,3.7l-0.1,2.8l-3,2.3l-2.7,4.5l-2.1,2l0,1.6l1.3,2.2l-0.7,2.4l-1.9,2.7l-0.6,3.7l-3.7,0.9l-1.1,1
	l0.3,2.5l3.6,1.4l-2.9,1.7l-1.4,1.8l-0.2,1.7l0.9,2.9l-3.7,3.1l-1.1,2.1l1.6,6.6l-1,1.4l-1.8,0.6l-2-1.1l-0.5-4.6l-1.4-2.2l-1.5-4.9
	l1-6.7l-3.1-8.9l-0.9-5.5l5-11.6l5.1-4.4l1.2-5.4l2.7-0.1l-0.3-0.7l-1.8-0.3l-2.5,1.2l0.8,0.5l-0.4,3.3l-7.3,6.4l-2.2-2.3l0.9-2.8
	l0.1,1.2l3-1.8l2.2-0.5l0.8-1.2l-1.1-1.2l-2.2,0.4l-2-0.6l-0.6-1.3l0.7-1.6l2.5,0l4.4,1.2l0-1.3l-4.1-0.3l2.9-3.7l1.1-4.2l-0.9-1
	l-3.3-0.5l0.8-3.9l-3.2-1.8l0.8-1.7l1.4,1.5l0.9-0.4l1.3-1.2l-0.8-0.9l-2.3-0.8l-2.9,0.5l-0.9-0.9l4.1-2.9l2.2,0.5l0.3-3l-1.9,0.1
	l0.1-1.4l-0.9-0.9l3.4-0.6l-0.5-1.6l-1.8-0.2l1.9-2.2l1.1-0.7l-0.9-3.8l2.3,1.1l5-1.5l1.6-6.3l2.3-0.5l0.1-3.5l1.1-0.1l2.4-3.5
	l2.7-0.1l0.8-3.2l0.7-0.7l-0.7-0.6l1.6-0.5l1-1.4l2.8,1.1l2.2-1.5l1.8,2.3l-0.4,3.6l0.5,0.5l-0.9,1.9l0.9,2.2l0.7-1l1.6,0l-0.6,0.8
	l0.4,0.6l1.6-1.6l1,0.6l3.6-0.3l0.2-2.6l-1.6-3l0.9-2.4l4.8-0.2l4.8,1.6l0.2,0.7l-1.2,1.1l-2.5,0.5l3.7,0.8l-2.4,0.9l5.4,2.2
	l0.7,0.4l4,3.1l2.1,4.4l-3.4,2.8l0,0.5l-1.6,3.1l0.5,2.2l0.9,0.6l0.1,0.6l1.3-1.7l-2-2.3l2.7-3l0.2-0.9l1.4-0.7l9.1,1.7l3.1,2.7
	l1.6,2.6l-1.1,1l-2,0.5l-5.8-0.5l-4.2,1.8l-2.7-1l-1,0.4l2.4,0.7l1,1.7l2.5-2.2l3.2-0.5h0.7h0.3l2.6,0.5l1.6,0.9l4.7,14.6l2.1,2.3
	l2.4,1.3L259,419.7L259,419.7z M214.2,476.2l1.1,1.1l-0.3,2l-3.4,7.8l-0.6,3.5l-3.4,2.9l-2.4,1.1l-2.9-0.1l-4.9-1.6l-2.4-2.1l0-2.2
	l1.2-0.4l1.7-3.5l-0.1-2.5l2,0l0.8-0.6l-0.9-2.7l2.1-2.5l1,0.7l3.9-1l1.7,1.2l0.2,1.2l0.5-0.1l2.1,1.3l1.1-3.1L214.2,476.2
	L214.2,476.2z M224.3,475.3l-0.1-1.8l-3.9,2.9l-4.8,10l0.4,2.5l0.9,1.1l3.4-0.5l1.7-1.8l-1.8-4.7L224.3,475.3L224.3,475.3z
	 M223.6,469.8l3.3-2.8l-1.6-0.5l-1.8-0.5l-2.7,2.5l-2.2,4.1l0.2,1.9l-0.2,1.1l4.7-5.2L223.6,469.8z M226,486.5l2.7-0.7l0.9-1.3
	l0.4-1.1l-3.5,1.5L226,486.5L226,486.5z M227.3,490l-0.2,1.3l2.7-0.6l-0.2-2.2L227.3,490z M231.6,471.6l-1.3-2.5l-4.6,2.5l-0.2,0.3
	l-0.9,1.2l0.4,2.4l-3.1,5.5l-0.9,1.8l0.5,3.1l1.7,1.2l0.8-0.1l0.9-1.9l5.2-2.4l2.7-3.1L231.6,471.6L231.6,471.6z M234.9,490.6
	l0.1-1.3l-0.8-0.3l-2.4,1.4l-0.5,1.9l0.4,1.2l1.4,0.1l2.9-1.9l0.3-0.6l-0.6,0.5L234.9,490.6L234.9,490.6z M237.7,487.2L236,486
	l-1.9,2.1l3.9,1l0.6-0.4l-0.4-1L237.7,487.2L237.7,487.2z"/>
<path id="BD-B" class="st1" d="M270.1,436.6l-0.3,3.8l-0.6,0.6l-0.4-0.4l0.8-2.3l-0.8-0.6l-0.3-0.8l1.2-2.4L270.1,436.6L270.1,436.6
	z M272.5,445l0.9-0.6l1.2-3.2l-0.6-2.3l-2.1,5.1L272.5,445L272.5,445z M278.3,437.1l0.9-1.6l0-1.5l-1.2-1.8l-1.9,1.1l0,2.6l1.1,1.3
	L278.3,437.1L278.3,437.1z M280.6,445.8l-1.7-6.5l-1.4,0.4l0,6.3l-7.5,19.2l1.2,1.3l1.2,1l0.8-0.3l0.6-2.9l4.1-6.4l1.9-4.6
	L280.6,445.8L280.6,445.8z M285.7,439l-1.2-1.9l-2.3,2l1.3,1.8l2-1.1L285.7,439L285.7,439z M283.8,444.4l-0.6-1.5l-1.2,1.1l0.8,2.9
	L283.8,444.4L283.8,444.4z M279.7,428.9l-0.3,1l1.3,7.3l1.2,1l1.6-1.7l0.7-2.4l0.6-4l-2.6-1.7L279.7,428.9L279.7,428.9z
	 M281.2,441.9l0.7,1.7l1.3-1.3l-1.4-1.5L281.2,441.9L281.2,441.9z M253.9,380.7l-0.4-0.7l-2.5-3.1l-0.7-0.3l-1.2,0.8l2.5,4.1
	l0.2,0.2l2.8,4.6l0.4-0.4l0.4-1.1l-1.6-3.7L253.9,380.7L253.9,380.7z M243.6,352.8L243.6,352.8l-0.1,0.2L243.6,352.8L243.6,352.8z
	 M277.5,431.7l-0.2-2.1l-1.7,0.8l0.7,1.5L277.5,431.7z M282.5,466.3l-2-0.8l-0.8,0.5l-1.6,3.5l0.3,2.1l1,0.9l2.1-1.2l1.5-2l-0.4-0.4
	l0.7-1.4L282.5,466.3L282.5,466.3z M272.5,423.4l0.3,1.4l2.1,0.4l0.6,0.1l3.6-1.4l-2.4-3.6l-1.6,0.5l1.2-0.9l-3.3-2.8l-4.4-0.4
	l-1.9-1.3l-1.5,1.3l0.1,0.7l6.6,6.8L272.5,423.4z M303.1,431.9l0.5,1.4l1.3,0.8l0.7-2.2l-0.9-1.1L303.1,431.9z M315.7,406.1
	l-0.3-1.1l-1.3-1.6l-3.4-1.8l-2.5,1.5l1.1,4.8l2.5,3.1l2.9,0.9l2.3,1.6l1.3-3.8l0-1.7L315.7,406.1L315.7,406.1z M307.1,411.6l-1.4,0
	l-0.5-0.3l-0.7,1.7l0.9,3.6l1.8-2.8L307.1,411.6L307.1,411.6z M307.3,419l-1.4,2.7l-0.6,1.8l1,1.1l3.4-4.3l0.3-1.8l-0.8-0.7
	L307.3,419z M330.2,421.6l-6-7.9l-1.6-1.1l-2.4,1.4l0.3,0.7l-1.2-0.1l-0.6,1.4l0.6,0.5l-0.8,0.2l1.6,7.7l1.7,4.5l3.4,5.9l2.8,1.2
	l2.2-0.2l3.3-1.5l0.8-1.8l-0.4-3L330.2,421.6L330.2,421.6z M364,484.5l-1.6-2.2l-2.7,2.2l-0.6,2.5l1.1,5.1l-0.9,2.2l0.2,3.1
	l-0.9,1.8l0.5,1.5l0.7-0.1l4.5-12.2L364,484.5L364,484.5z M434.9,539l-2.7-13.8l-1.7-20.4l0.8-10.7l0.9-1.9l-0.6-1.2l1.3-4.8
	l-1.3-5.6l-0.1-6l-1.2-3.8l0.6-2l-3.2-7.2l1.6-1.1l2.1,1.9l0.4-5.2l-0.9-1l-0.7-7.5l-1.1-3.2l0.1-3.2l-2-7.1l-1.2-13l-1-3.4l-1-0.8
	l0.9-1.7l-0.1-2.6l-1.2-7.3l-2.1-6l-1.1-1.8l-1-0.9l0.5-1l-0.8-1.2l0-1.4l-1.8-2.5l0.5-0.9l0-1.1l0-1.3l-0.6-1.6l-1-2.2l-1.4,0.7
	l-1.3-2.6l-1.2-0.3l-0.9-1.6l-2-0.3l0.9-5.3v-5.2l0.8-2l-0.9-3l-1.7-1.9l0.7-2.2l-0.8-1l0.6-2.3l-0.2-2.5l-0.7-0.8l-0.1-4.6l4.5-0.9
	l-0.8-2.4l-1.1-2l-0.1-2l-1.4-1.5l1-2.8l-0.3-1.2l-0.6-0.9l-0.5-0.8l-0.9-0.2l0.2-2.8l-0.9-0.6l-0.2-2l-0.9,0.3l-0.2-2.5l-0.1-0.9
	l-0.5-1.4l-0.9-1.2l0-3.5l-1-0.9l0.5-2.1l-1.5-3.4l-0.8-0.8l0-2l0.6-1l-1.8-0.5l1.3-6.5l-2.4-3.5l-1.6,0.2l-1,1.3l0.5,2.2l-0.8,2.2
	l-1.7,1.2l-0.7-0.6l0.5-3.1l-1.4-1.2l-1.6-0.4l-0.5-3.2l-0.9-0.1l-2,1l-4.2,5.7l-1.4-0.1l-0.3,2.4l-1.5,0.9l-3.3-1.7l-1.2,0.4
	l-3.7-7.3l-2,0.2l-0.5,2.9l-1.4,1.8l1.4,6.5l-0.5,3.2l1.2,0.8l-0.3,4.2l0.6,0.9l-0.8,0.9l1.4,1.6l0.1,2.2l-3.1,1.4l0.5,2.5l-0.5,0.7
	l-3.6-0.4l-5.3,4.2l-0.9,1.6l0.5,0.4l-3.4,4.2l-3.5,7.6l0.4,1.8l1.6,1.7l-0.1,1.9l0.8,1.4l0.6,3.9l0.7,0.8l-0.1,2l0.8,0.8l0.1,2
	l0.1,1.7l0.2,0.8l-0.9,0.9l-3.3,0.1l-0.5,2.3l-2.3,3.6l-2.4,2.1l-2.5-1.4l-0.9,1.5l-1.2,0l-1.7,0.1l-0.4,0.4l-3.1,2.4l-1.4,0.4
	l0.7-1.8l-1.4-0.2l-1.3,1.3l-1.9-1.3l0-1.3l-1.3-0.5l0.4-2.1l0.1-1.8l-1.5-0.1l0.3-1.6l-0.2-1.2l-0.8-1.8l0.4-0.8l-1.9-1.9l0.8-0.9
	l-1.4-1.3l0.6-1l-0.5-1.4l-0.6-1.5l-0.5-0.8l-0.9-2.6l-0.3-1.4l-2.6-0.3l1.5-1l-0.8-1.3l-1.4-0.5l0.8-1.1l-3.9,0l-1,1.2l-0.3,1.7
	l-0.8,0.3l-0.6,4.5l0.2,2.7l1.7,4.6l-0.2,1.2l0.4,1.1l1,0.4l0,2l-1.9,0.8l-2.3-1.2l-2.2-3.7l-1.3-5.1l-0.8-0.7l-0.5-8.4l0-1.3
	l-0.8-2.1l0.6-0.8l-1.5-0.9l1.4-1.2l-0.5-1.2l-1.8-0.7l0.5-2l1.2-0.4l1-1.8h-2.4l-0.8-1l-0.4-0.6l-0.4-3.9l-2.1-3.3l-0.6-4.2
	l-1.5-0.5l0.1-0.9l-1.1-1.1l-1.9-0.4l-0.2-0.7l1.3-2.5l-1.7,0l0-1.8l-1.8-2l0.2-0.8l-1.5-0.5l-0.5-7.3l1.4,1.4l1.8,0.2l0.3,0.9l1-1
	l0-3.1l-0.9-0.5l-4,0.1l-0.4-1.9l0.6-3l1.1-1.3l2.2-0.1l1.8,0.3l1,1l0.9-3l-0.2-2.8l2.4-4.3l-2.4-4.4l0-1.7l1.6-1.4l-1.3-1.6
	l3.9,0.2l-1-2.3l0.5-1.5l1.1-2l0.5,1.5l1-0.5l0.6-2.6l-0.9-0.5l0.1-1.6l1,0.1l0.5-2.4l-0.9-2l-1.5-0.2l0.3-3.6l-1.2,0.3l-0.9-0.7
	l0.3-1.3l1.9-0.7l-1.9-0.7l0-1.6l-0.9-0.2l1.3-2l0.3-1.8l2.3-1.1l1,0.4l-0.2-1.6l-2.9,0.9l-0.7-0.6l0.8-1.8l1.1,0.6l0.2-1.2l0.8,0.3
	l0.9-1.1l0.8,0l0-3l-1.3-0.6l-1,0.5l-1.2,1.7l-0.3,1.6l0.5,0.6l-1.1,0.2l-7.4-1.4l-2-2.6l-3.4,2.4l-5.4,0.1L288,250l1.4,1l-0.2,0.4
	l-5.1-0.3l-2,2.9l-3.1,1.9l1.5,2.6l4.3,2.4l0.9,2.1l-1,1.9l-5.6,3.8l-1.5,2.9l0.4,4.1l-2.4,2l0.2,2.6l-2.4,2l-0.8,3.3l-2,1.7
	l-1.1-0.1l-2-1.9l-2.4,1.2l-5-0.3l-2,0.9l-0.6,1.4l1.1,1.9l0.1,2.8l-3.4,4.1l-0.6,1.6l0.1,1.7l1.8,2.9l-0.8,2.9l-2,0.5l-3-1.7
	l-3.3,0.6l-1.5,5.5l2.6,0.5l1.1,2.5l-1.3,0.3l-0.8,1.4l3.7,1.6l2.4,5.5l-2.5,1.6l-3.8-1.5l-2.2,1.3l-2.7,0.4l-5.1,10.4l1.2,3.4
	l2.6,1.9l-0.5,3.2l3.7,8.4l2.3-0.2l0.1,5.2l1.4,4.6l-1.3,3.3l-0.3,7l0.6,2.7l1.9,2.9l1.1-1.2l1.3,0.1l2.5,3.5l2.3,5.1l2.1,2.6l0,0.1
	l2,3.9l-0.5,5l3.9,7.6l2.5,3.4l0.9,0.1l0.6,0.5l2.6,0.5l1,1.9l9.2,6.1l7,8.1l3.7-4.1h1.5l1.3,0.5l1-0.6l0.5,0.3l0.4,0.5l-0.7,0.9
	l1.1,0.5l5.9-3.8l1.4,0.5l1.8-1.5l-1.9-4.5l1.7-2.2l1.9-0.5l-0.9-0.6l0.1-1.3l-1.8-2.3l-1.6,0.2l-0.5-0.5l1.2,0l-0.9-2.1l-2.1-0.1
	l-0.9-2l-1.4-0.2l0.3-0.4l0.9,0l1.6,1.9l0.9-0.9l0.8,0.4l2.2,2.2l3.8-4.6l0.8-0.4l3.1-0.7l3.2,0.3l1.1-0.5l0.2-1.1l-2.6-0.8l1.9-1.3
	l2.3,1.6l0.2,1.4l1.1,0.8l1.2-2.5l-0.9-1.4l0.2-1.1l-1.4-0.9l1.7-3.4l0.1,1.5l-1.1,1.4l2.8,2.8l0.7,3.4l0,0.6l1,2.4l7.8,4.9l4.1,4.7
	l0.7,1.8l6.4,6.5l3.8,5.7l0.9,3.6l1.4,2l-0.4,0.7l1,1.3l2.7,11.7l-0.3,2.4l3.1,4.6l0.9-0.7l0.6,0.3l-0.1,3.5l1.7,6l1.1,2l0.5,0.2
	l0.9-0.9l0.4,0.8l-0.1,2.6l1.3,4.2l0.3,2.5l-0.8,1.9l1.5,2.5l2.5,8.8l0.4,3.5l-0.6,3.8l-5.1,14.2l0.6,1.5l1.5,1.5l0.6-0.1l0.3-0.8
	l0.7,0.9l-0.9,1.3l0.1,1.4l-0.7,0.1l0.1,2.3l-0.7,1.3l0.8,1.1l1.8-0.6l-1,1.2l-1-0.3l-0.6,0.7l0.2,0.7l1.1,0.8l-1,0.8l-1.3-0.6
	l-0.9,1.5l0.3,0.7l3.4,4.1l1.4,0.7l0.5-0.9l-1-0.7l0.9-0.4l-0.5-0.9l0.8-0.4l0.6,0.6l2.8,0l2.4-0.8l1.2-12.1l0.7-1.6l1.2,4.5
	l-0.3,0.5l-1.1,1.8l0.6,5.9l-1.1,3.2l-1.3,1.3l-0.5-0.1l-1.2,1.3l-0.5-0.3l0,1.2l6.2,8.5l2.9,6.9l0.2,12l12.6,15.9l1.7,5.9l2.4,5.1
	l4.6,7l3.4,7.9l2.2,1.9l0.6-1.6l-2.2-8.4l-1.9-4.7l-2.6-2.7l-1-3.5l0.1-2.9l-1.1-5.6l1.2-2.8l-3.5-4.1l-0.3-2.5l0.3-0.6l-1.9-0.7
	l-1.6-3.3l1.7-3.9l0.5,0.3l1.5-1.8l-2.3-5.9l-0.5-3.3l3.1-2.8l2.2-0.7l-0.1-3l1.2-0.8l0.2-2.7l1.8,0l1.4,1l1.5-0.5l2-3.7l2.4-1.8
	l2.1,0.2l3.1,4.3l0.7,2.7l-0.4,2.2l0.9,1.6l6.2,1.8l1-0.4l0.1-1.4l1.5,0.3l1.8-1.1l1.2,0.8l1.3,5l1.9,4l0.2,2.8l1.7,0.2l1.5-2.2
	l4.1-2.7L434.9,539L434.9,539z M285.9,468.8l-0.5,3.4l3.1-2.6l-0.4-1.5L285.9,468.8z M305.7,429.8l1.3,1.7l1,0l0.1-0.6l-1.6-1.7
	L305.7,429.8L305.7,429.8z M294,423.3l0.5-2l-0.4-0.2l-1.2,0l-0.5-0.4h-1.1l-2.2,2.1l-1,2.3l-0.1,3.1l0.9,0l3.5-4.1L294,423.3z
	 M296.1,442.1l-1.3-4.2l-2-2l-0.1-1.6l-5.6-2.6l0.1,6.1l-0.6,3.7l0.3,8.2l-1.5,6l-3.5,7.5l0.6,1.3l3.5,2.4l4.2-3.9l3.1-1.4l0.2-1.5
	l0.6,0.2l1.1-2l1-0.6l0.2-2.3l0.6,0l1.7-5.1l-0.2-4.3L296.1,442.1L296.1,442.1z M297.1,422.9l2.1,0.9l0.2-1.5l-1-0.2L297.1,422.9
	L297.1,422.9z M294.6,424.1l-2.7,3.4l2.3,0.1l2.9-1.6l1.7-1.9l-1.7-1.1L294.6,424.1L294.6,424.1z"/>
<path id="BD-C" class="st2" d="M236.8,364.2l2.1,1.1l-0.1,1.3l-1,0.2l0.8,0.9l-1.7,0.1l-2.5,1l0.3-1.2l1.5-2.3l0,0L236.8,364.2
	L236.8,364.2z M301,234.4l1.3,0.2l2.1-1.5l-1.6-2.8l-1,0.2L301,230l-0.2-1.4l2.1,0.1l0.3-0.8l-1.3-4.8l-1.4-0.1l0.8,1.3l-1.6-0.6
	L298,226l-0.2-1.5l1-0.5l-2.5-0.7l-1,0.8l-0.6-0.3l2-2.4l0.8,1.4l0.7-0.6l2.5-3l1.9-4.6l-3.4-1.8l0.6-0.9l-0.3-1.2l-2.1-0.9
	l-0.2-1.5l1.8,0.9v-0.9l0.9,0l0.2-1.7l1.4,0l0.8-0.9l-1-1.5l1.8-0.3l0.1-1.6l-1.9-0.8l0.8-1l-0.5-1.6l-1.5,1.6l-2.5-1.6l-1.7,0.9
	l-0.4-0.7l-1.6,0l1-0.8l-0.4-1.4l0.7,0.4l0.4-0.7l-0.7,0.1l0-0.7l-1.2-0.1l-0.2-0.6l0.9-0.6l1.4,0.3l-0.1-0.9l1.3-0.9l-1.4-0.8
	l1.4-2.3l-0.2-1.9l-1.5-0.9l-1,1.4l0.3,0.8l-1.3,1l1.2,1.5L293,192l-1.5-2.4l0.6-2l0.8-0.6l-0.4-0.8l-1,0l-1.1-3.8l-2.1-1.6
	l-3.5-0.5l-1.2,2.3l-0.9-0.2l-0.4-1.1l-1.3,0.4l-1.1-2.2l-3.4-0.1l-0.1-2.6l-0.6,0.1l2-0.9l0.4-1.2l-1-1.4l-1.6-0.4l0.3-3l-1.2-1.7
	l0.5-0.9l2.4-1l-2.9-0.9l-0.2-3.4l1.4-0.3l1.2,1.1l1.5-0.5l-0.3-1.9l-2-1.8l0.6-1.1l-0.2-2.9l1.6-0.7l-0.5-1.4l-3.6,0.9l-4.1-0.4
	l-3,0.9l-3.2-1l-0.9-0.6l-2.4-1.3l-1.5,0.7l-0.5,1.1l-1.7,0.8l-0.7,0.4l-1.8-1.2l-1.4,1.2l-1.6-1.1l-1.4,0l-0.8-1.9l-1.6,0.4
	l0.1,0.9l-2.1,0.1l-0.9-0.6l-3.1,0.8l-6.2-0.4l-0.1,0.5l-5.3,1.8l-0.7,0.8l-3.6-1.6l-3.3-0.4l-3.6-3l-2.2,0.4l-7.2-1.8l-1.2,0.4
	l-5-2.1l-5.6-0.3l-5.2-3.7l-2.4-0.4l-2.4-1.6l-2.1,0l-1.4-2.1l-1.7,0.8l-0.4-0.9l-1.1,0.4l-2.4-0.8l-2.8,2.2l-4.4-0.9l1.2-1.5
	l-1.1-1l0.1-1.5l-1.4-2.2l-0.1-3.1l0.8-2.9l-5.4-1.7l0.1,0.1l0.4,1.3l0.9,0.6l-0.3,2.1l-1.6,0.9l-1.1,0l-0.2,0.1l-2.4,2.5l3,7.3
	l-0.6,2.5v0.3l0.6,1.5l-1,1.2L163,146l-3.8,0.4l-2.4,4.5l-0.1,1.6l-2.1,2.9l0.1,3.1l-0.1,0.3l-1.1,2.1l0.7,1.1l0.3,0.2l0.3-0.2
	l0.1,0.2l0.2,2.5l-0.7,1l1.1,5.1l0.2,0.6l1.4,2.7l0,1.1l-0.5,2.4l1.1,1.8l-0.2,0.1l-0.4,0l-0.6,0.4l-1.1,0.7l0,0.6l2.1,5.5l2,2.1
	l2.5,1.3l1.1-0.1l0.3,0.6l-1.5,0.2l-0.8,1.1l-0.1,0.8l1.3,1l0.3,0.1l0.6-1.1l1.5,1.2l1.2-1.1l0.9,0.9l0.1,2.1l0.6,0.4l0.2,0.4
	l-0.4,1l-1,0.6l1.6,1.8v1.4l0.5,0.4l0,1.2l-1.2,0.8l0,4.1l-1.9,0.9l0,0.6l1.4,4.4l-0.2,0.4l-0.7,0.4l-0.2,0.3v0.9l-0.1,0.3l-2.2,1
	l-0.1,1.7l-0.2,0.2l-0.4-0.2L162,219l0.4,0.6l0.8,0.2l0.4,0.1l0.4,1.3l-0.9,1.9l0.1,0.3l0.7-0.3l0.1,0.2l-1.5,1.1l-0.1,1.2l-1.6,1
	l0.6,1l0.8,3.1l0.6,0.2l1.2-0.3l0.7,3.5l-1.6,2.7l1.9,1.9l0.2,0.5l0,1.8l1.1,1.9l0.1,0.6l-0.6,4l0.1,0.8l1.4,6.5l-0.1,0.2l-1.2,0.3
	l-0.3,0.4l0.4,0.7l0.3,0.2l1.6-0.2l0.4,1.3l1.1,0.7l-0.3,2.9l0.6,3.5l-0.9,1.6l-4,3.2l-0.4,0l-1-0.2l-0.6,0.1l-4.3,3.3l-0.8,6.5
	l0.2,0.3l0.7,0l0.4,0.6l0.1,2l0.1,0.4l-0.7,3l0.1,0.2l0.7-1.3l2.7,4.9l-1,0.5l-1.1,0.3l-1.1,1.5l-1.2-0.1l-1.3,0.5l-1,0.1l-4.1-0.2
	l-0.3,0.3l-2.6-0.2l-1.2,0.8l-0.5,0l-1.3-0.1l-0.6-0.9l-3-0.2l-1.3-0.8l-11.9-9.2l-1.1,0.3l0.1,1.4l-0.3,0.4l-0.4-0.6l-0.2,1.5
	l0.7,1.4l-2.5,4.3l-1.1,3.4l0.4,1l-0.5,0.8l-1.2,0.2l-0.2,0.5l1,0.3l-0.6,1.8l-1.8,1.4l1.3,0.7l1.3,2.8l2.6,3.2l2.3,0.6l3.1-1.6
	l2.7,2.5l0.3,1.6l4.3,1.2l0.2,1l-1.8,1.9l1.6,0.6l1.2,1.4l0.7,3l2.6,1.2l-3.1,1.2l-1.3,2.4l3.9-0.9l4.2,2l2.8,2.2l-0.1,4.9l1.2,3.3
	l-0.3,0.4l-2-0.5l0.6,4.7l1.1,2.9l1.9,1.6l0.9,2.4l-2,3.8l5.7-0.5l-0.4,1.9l0.8,1.7l-0.8,2.4l1.4,1.9l3.8-2.4h2.2l0.6,0.6l-0.5,0.7
	l-3.2,0.7l-0.1,0.7l1.7,1.9l-0.2,1.3l-2.8,0.5l-1.1,1l-1.3-1.1l-0.2-1.5l-0.9,1l0.2,1.2l1.9,2.2l2.7,1.2l-0.3,0.9l1.2,0.9l-0.8,1.9
	l2,0.9l0.9,3.6l3.3,1.4l-0.3,1.6l1.8-0.1l0.6,0.6l-1.1,2.7l2.8,0.7l1.2,2l2,1.4l-0.1,0.6l-1.4-0.3l0.4,1.2l-0.4,0.3l-1.2-0.5
	l-1.3,0.4l0,1l-0.9-0.3l1.1,1.8l1.8,1.4l2.3-0.6l1.6,1l2.1,0.1l1.2-0.9l1.1,2.7l1.1-0.7l-0.9-3.8l2.3,1.1l5-1.5l1.6-6.3l2.3-0.5
	l0.1-3.5l1.1-0.1l2.4-3.5l2.7-0.1l0.8-3.2l0.7-0.7l-0.7-0.6l1.6-0.5l1-1.4l2.8,1.1l2.2-1.5l1.8,2.3l-0.4,3.6l0.5,0.5l-0.9,1.9
	l0.9,2.2l0.7-1l1.6,0l-0.6,0.8l0.4,0.6l1.6-1.6l1,0.6l3.6-0.3l0.2-2.6l-1.6-3l0.9-2.4l4.8-0.2l4.8,1.6l0.2,0.7l-1.2,1.1l-2.5,0.5
	l3.7,0.8l5.4-1.7l1.5-1.7l0.3-1.7l2.3-3.6l2.5-1.1l0,0.5l1.2,0.9l2.2-7.7l-0.4-0.9l0.6,0l1.1-2.8l0.1-0.2l0.7-1.2l-3.7-8.4l0.5-3.2
	l-2.6-1.9l-1.2-3.4l5.1-10.4l2.7-0.4l2.2-1.3l3.8,1.5l2.5-1.6l-2.4-5.5l-3.7-1.6l0.8-1.4l1.3-0.3l-1.1-2.5l-2.6-0.5l1.5-5.5l3.3-0.6
	l3,1.7l2-0.5l0.8-2.9l-1.8-2.9l-0.1-1.7l0.6-1.6l3.5-4.1l-0.1-2.8l-1.1-1.9l0.6-1.4l2-0.9l5,0.3l2.4-1.2l2,1.9l1.1,0.1l2-1.7
	l0.8-3.3l2.4-2l-0.2-2.6l2.4-2l-0.4-4.1l1.5-2.9l5.6-3.8l1-1.9l-0.9-2.1l-4.3-2.4l-1.5-2.6l3.1-1.9l2-2.9l5.1,0.3l0.2-0.4l-1.4-1
	l0.4-2.1l5.4-0.1l3.4-2.4l1.9-2.7l-0.7-0.3l-2.8,1l1.2-3.7l5.9,0.3l0.2-1.5l-2.1-3.1L301,234.4L301,234.4z"/>
<path id="BD-D" class="st3" d="M131.7,421.9l0.8,0.9l1,0.1l-0.9,0.6l0.8,3l0.4,6l1.2,0.9l-0.2,3.8l-1.2,1.6l3.8,5.1l0.1,0.6l1.6,3.4
	l0.2,0.2l-1.7,3.4l3.9,12.9l0.7,0.6l1,1.3l-0.1,2.5l-2.3,4.3l2.1,2.3l4.8-13.2l-4.1-7.7l3-3.4l0-1.6l0.1-0.2l0.4,1.3l0.7-0.3
	l-0.4-3.5l2.3-2.9l1.8-4.1l-0.9-4.5l-2.7-5.1l-0.5-6l-1.6-5.4l-3.3-4.3l-0.3-0.4l-0.6-2.5l-2.1-1.6l-1.2-0.2l-0.8,0.2l-1.5-0.2
	l0.1,2.1l-5.3,4.7l2.2,2.7l-0.1,1.1L131.7,421.9L131.7,421.9z M143.9,486.9l-0.3-7.7l0.5-0.6l2.2,2.6L143.9,486.9L143.9,486.9z
	 M112.6,497.6l-1.6-0.9l-0.9-3.3l1.4-1.4l4.9,1l1.4-1.7l0.7,1.7l1,1.9l-1.1,0.5l1.2,0.2l0.4,3.8l-2.7-0.7l-3.8,1.1L112.6,497.6z
	 M123.9,486.2l3-1.6l-0.6-2.6l-1.6-3.5l-2.9-3.5l-0.1-0.3l-2.7-5.9l1.7-2.7l-3.1,0.4l-1-1.2L115,465l-0.8,0.3l2.1,1.9l0.4,1.8
	l-3.2,4.9l2.2,1.1l0.9,1.5l-0.7,1.1l-3.2,1.9l2.3,1l2.4,2.5l1.7-0.4l1.4,0.9l0,1.7l-1.6,2l0.6,3.1l0.8,0.2l-1.1,0.7l1.5,1.7l1.3-4.6
	L123.9,486.2L123.9,486.2z M106.7,499.5l0.2,1.8l-1.1,1.4l-2.6,0l-3.5-4.9l-2.5-1.7l1.5-6.7L98,487l-1.9-2l-0.1-1.5l0.2-0.8l1.3-0.4
	l0.9,0.3l0.2,3.3l2.2,3l-0.7,3.7l0.9,2.4l4.4,2.6l0,0.9L106.7,499.5L106.7,499.5z M118.4,505.1l2.3,1.1l-1.5,1.8l-1.9-0.1l0.5,0.6
	l-0.4,0.5l-4.4,0.7l-0.5-1.5l1.5-3.3l0.5,0.2l1.6,0.8l1.1-0.3L118.4,505.1L118.4,505.1z M106.2,478.8l2.8-3.8l-0.6-2.5l0.9-0.1l1,0
	l1,2l4.3,1.7l-3.6,2.4l0.6,2.5l1.1,0.9l1.9-0.1l0.5,1.5l0.9,0.6l2.7,0.3l-1.5,2.2l-0.2,0.2l0.6,2.7l-2.4,3.4l-5.1-1.1l1.6-8.5
	l-2.7-0.8l-0.5,0l-1.6,0.1l-1.7-1.3L106.2,478.8L106.2,478.8z M124.6,456.5l0.3,2.4l-0.9,2.6l1.9-0.6l-0.1,1.8l2.3,2l0.7-2.2
	l2.2-0.9v-0.4l0.1-2.4l3-1.3l2.1,2.3l1-1.6l-1.3-3.3l-0.1-2.3l0.1-2.8l-3.6,1.5l-0.2,0.3l-0.9-1.4l0.3-1.1l-2.4-1.1l-1,1l-1-1.2
	l-1.8,1.4l1,0.3l0.2,0.7l-0.8,0.8l-0.3,1.9l-1.3,0.4l0.1,1.4l-0.8,0.8L124.6,456.5L124.6,456.5z M140.6,465.8l-1.8-0.6l-1.2-1.6
	l-0.2-3.1l0.8-0.3l1.1,1l0.7,2.4L140.6,465.8L140.6,465.8z M117.8,498.9l1.9,0.8l0.5,2l-0.8,2.5l-1.2,0.3l-0.4,0.1l-1.6,1l-2.2-1.2
	l-0.4-4.2L117.8,498.9L117.8,498.9z M135.2,467.6l4.1-1.9l1.8,1.3l-3.8,2.9l-2.1-1.6L135.2,467.6L135.2,467.6z M161.4,485.7l1.4,4.1
	l-0.2,1.1l-1.7,0.6l-2.1-0.4l-0.2-0.7l-2.6,0.5l-0.2-3.4l-1-1.4l1.9-2l1.4-3.8l-0.6-4.9l1-1.4l0.4,0.4l0.3,1.5l0.7,0.8l1,0.2l-1,1.8
	l1.5,2.9l-1.5,2.7L161.4,485.7L161.4,485.7z M174,478.6l1.3,5.1l-1,2.7l-1.6,1.1l-0.7-0.8l-0.5,0.3l0.1,2.5l-4.4,1l-1.1,1.1l-1-0.5
	l0.4-1.6l-2.2-0.3l-1.2-3.5l-1.8-1.5l1.5-1.5l-0.5-2.1l-1-1.9l1.3-0.9l-0.5-1.2l-0.7-0.2l-0.8-0.4l-0.1-2l-0.8-0.2l0.6-2.5l-2.5-1.7
	l3-2.1l0.2-5.6l3.2-0.5l0.7,0.1l0.9,1.5l0.9,3.1l4.6,3.6l0.4,0.2l1.1,0l1.8,2.5L174,478.6z M152.3,487.2l0.2-1.1l1.2-0.9l1.4,2.7
	l-1,1.2L152.3,487.2L152.3,487.2z M178.5,427.3l-2-0.6l-0.6-1.3l0.7-1.6l2.5,0l4.4,1.2l0-1.3l-4.1-0.3l2.9-3.7l1.1-4.2l-0.9-1
	l-3.3-0.5l0.8-3.9l-3.2-1.8l0.8-1.7l1.4,1.5l0.9-0.4l1.3-1.2l-0.8-0.9l-2.3-0.8l-2.9,0.5l-0.9-0.9l4.1-2.9l2.2,0.5l0.3-3l-1.9,0.1
	l0.1-1.4l-0.9-0.9l3.4-0.6l-0.5-1.6l-1.8-0.2l1.9-2.2l-1.1-2.7l-1.2,0.9l-2.1-0.1l-1.6-1l-2.3,0.6l-1.8-1.4l-1.1-1.8l0.9,0.3l0-1
	l1.3-0.4l1,0.4l0.4-0.3l-0.4-1.2l1.4,0.3l0.1-0.6l-2-1.4l-1.2-2l-2.8-0.7l1.1-2.7l-0.6-0.6l-1.8,0.1l0.3-1.6l-3.3-1.4l-0.9-3.6
	l-2-0.9l0.8-1.9l-1.2-0.9l0.3-0.9l-2.7-1.2l-1.9-2.2l-0.2-1.2l0.9-1l0.2,1.5l1.3,1.1l1.1-1l2.8-0.5l0.2-1.3L161,358l0.1-0.7l3.2-0.7
	l0.5-0.7l-0.6-0.6h-2.2l-3.8,2.4l-1.4-1.9l0.8-2.4l-0.8-1.7l0.4-1.9l-5.7,0.5l2-3.8l-0.9-2.4l-1.9-1.6l-1.1-2.9l-0.6-4.7l2,0.5
	l0.3-0.4l-1.2-3.3l0.1-4.9l-2.8-2.2l-4.2-2l-3.8,0.9l1.3-2.4l3.1-1.2l-2.6-1.2l-0.7-3l-1.2-1.4l-1.6-0.6l1.8-1.9l-0.2-1l-4.3-1.2
	l-0.3-1.6l-2.7-2.5l-3.1,1.6l-2.3-0.6l-2.6-3.2l-1.4-2.8l-1.3-0.7l1.8-1.4l0.6-1.8l-1-0.3l0.2-0.5l1.2-0.2l0.5-0.8l-0.4-1l1.1-3.4
	l2.5-4.3l-0.7-1.4l0.2-1.5l0.4,0.6l0.4-0.4l-0.1-1.4l-3.8-2.7l-0.4-0.5l-1.1-1.8l-5.2-2.1l-0.8-0.2l-0.7,1.2l-0.8,2.6l-2,1.3
	l-0.9-0.4l-1.3-4l-0.3,0l-0.9,1.6l-1,0.5l-3.9-1.4l-2.3,0l-0.3-1.2l-3-1l-1.8-6l-0.3-0.4l-2.1-6.5l-0.6-1l-5.2-0.5l-0.8-0.2
	l-0.8-0.4l-1.7,0.8l0.2-1.1l-0.1,0l-0.9,0.3l-0.2,0.2l0.2,1.1l-0.1,0.1l-3,1.2l-0.2,0l0.7-1.3l-0.2-0.2l-1.3,0.5l-0.4-0.1l-7.1-2.5
	l-2.9-3l-2.2-4.1L68,252l-1.4-0.3l-0.6,2.4l-1.1,1.1l1,4.8l-1.4,0.6l0.5,1.9l2.4-0.1l-0.3,3.1l1.4,0.6l-1.3,0.7l1.1,0.6l0.3,1.2
	l-0.1,2.1l-1,2l3-1.4l1.2,2.4l-2.8,0l-0.6,0.7l0.7,4.3l-0.9,0.6l-0.1,1.7l-2.8,0l0.2,1.4l-1.1-0.1l-0.6,1.1l-1.7,0.5l-0.8,1.6
	l-2.7,0.6l-1.1-1.4L56,286l-1.2-0.6l-1.4,1.1l0,0.5l1.1,0.4l0.1,1.7l1.3,1.8l-1.4,0.5l0.5,1.2l-1,0.5l-0.2,0.8l-2,0.4l1.8,1.9
	l-1.4,5.1l0.9,4.8l-1.1,2.6l2.9,0.6l-0.2,2.2l-0.9,1.4l1.7-0.3l0.3,0.5l4-1l-0.6,1.5l0.9,0.9l1,3.2l2.3,1.4l1,2.2l3,0.9l1.5,2.8
	l1.1,0.3l0.4-0.8l1,0.6l0-1.2l0.9-0.6l1.8,0.3l0.1,1.8l-1.1,1.2l0.2,2.4l-1.2,0.6l-1.2-0.7l-0.7,2.4l0.2,1.3l-0.7,1.7l0.9,2.8
	l-2.7,1.6l1.2,3.7l-0.6,0.3l-1.2-1l-0.4,1.8l-1.2-1l-1.2,1.2l2.5,2.7l-0.3,1.7l2.5,1.5l2-0.2l1.4,2.1l1.2,0.3l1.6-0.1l-0.6-2.7
	l0.1-0.6l0.8-0.1l1.2,0.6l0.6,0.7l1.4,1.4l5.7-0.5l0.5,2.2l0.9-0.4l2.2,1l2.6-2l1.4,1l-0.7,0.5l-0.5,2.6l-1.2-1.1l-0.7,0.2l-0.7,1.4
	l-1.5,0.7l-0.6,3.1l-0.8-0.1l-0.2,1.4l-1.2,0.5l-1,1.6l-2.6,1.1l-0.3,2.7l1.2,3l-0.6,3.5l-2.5,0.2l2,1.3l0.1,2.1l-0.7,1.4l3.2,0.5
	l0.1,2.4l1.6,0.8l-1,1.5l0.6,2.7l2.2,1l1.3-1l2,3.5l-0.8,4.9l-1.8,0.8l-1.7,2.1l-0.1,2.8l3.7,4.7l-1.1,3.1l-1.4,1.4l0.4,2.7l1.7-0.4
	l0.7,0.6l-2,2.6l0.1,2.9l2,1.2l1.7,6l1.8,2l-0.8,2.4l1,1.8l-2.6,2.1l2.1,2.1l-1.2,1.2l0.6,1l-0.5,3.9l1.5,0.3l2.3,2.8l-2.5,0
	l-0.3,1.1l2.2,1.4l-0.3,1.5l1.8-0.3l0.8,3.1l2.7,2.8l0.3,0.5l-0.9,2.2l0.4,1.9l0.4,0.4l1.8-1.3l0.7,0.6l-0.1,1l-4.9,4.9l0.7,3.1
	l2.8,1l-1.6,0.1l2.1,3.7l0,0.5l0.6,7.4l-0.6-0.8L101,482l-0.4,2.1l1.9,3.4l0.3,5.1l-0.4,0.8l5.1,1.9l1.4-0.9l0.9-3.5l0.6-3.8
	l1.5-3.6l-5.3-0.5l-1.3-3.2l0.6-2.3l2.4-2.2l-1.6-4.5l0.7-1.5l1.8-0.8l-1.8,2.4l0.9,1.1l2.3,0.3l1.7,2.2l3.8-5.5l-0.8-1.7l-2-1.3
	l-0.9-2.9l-0.2-1.2l0.9-0.5l-0.5-1.4l3.2-1.4l-1.8-3.9l1.8-1.7l-0.5-1.4l0.5-1.6l0.5-2.4l1.3-1.2l-1,1.6l-0.4,4.4l5.4,0.4l0.2-1.3
	l-1.1-2.1l1.6,1.5l-0.4,2.2l1.6,1.8l0.2-1.5l1.2-0.8l0.2-1.1l1-1.5l-1.5-0.6l1-0.9l0.2-0.2l0.8-0.7l1.2,0.1l0.2,0.6l0.8-0.7l2.6,1.1
	l1.4-2.1l-0.8-1l-1.2-1.5l1-1.6l-2-1.5l0.4-1.1l-1.7-0.3l0-2.3l-1.7,0.2l0.3-1.9l-1-2.7l1.2-3.9l-1.4,0.5l-0.9-1.3l-8.2,1.1l0.2-1.5
	l2.5-0.8l-1.6-1.2l5.5-2.8l0.1,1.4l2.2,1l-0.9,1.5l0.2,0.9l0.9-0.6l2.9,0.9l0.6-0.9l2.4-0.1v-1.7l-1.1-2.5v-0.3l1.4-2.8l-3-3.7
	l-0.6-2.4l1.9-1.1l0.6-2.1l0.3-0.4l0.3,0.4l0.8,2l-1,2.9l4.2-3.5l0-2.2l1.6,0.3l1.2-0.7l3.2,2.2l0.6,1.3l0.3,0.5l0.3,0.3l3.9,5.9
	l2.1,8.1l1.7-3.7l2.1-0.9l-0.4-1.7l0.5-2.1l1.9,0.6l0.3,0.1l2.2-2.3l0.8,0.4L157,419l0.3,0.4l2.8-0.9l3.8,2.2l1.5,1.2l1.5,0.6
	l0.1,1.2l1.4,1.5l3.6,0.1l3.7,4.9l0.1,1.2l3-1.8l2.2-0.5l0.8-1.2l-1.1-1.2L178.5,427.3L178.5,427.3z M132.2,412.1l-1.7,4.4l-0.7-1
	l-0.6-2.1l1.7-0.8l0.6-2.1L132.2,412.1z M155,492.5l3.7,3l-0.2,2.1l-2.8,1.7l-1.6,0l-0.5-0.6l-0.9,0.3l-2.5-0.8l0.8-2.2l-0.4-1.5
	l-5.6-5.3l0.2-0.6l-0.9-1.6l2.6-6l1.2-1.1l1.8-0.1l1.4,0.3l2.3,3.4l-1.9,2.8l0.1,2.1L155,492.5L155,492.5z M175.2,430.5l-3.8-4.6
	l-3.5-0.3l-1.9-2.7l-2.4-1.9l-3.6-2.1l-2.8,1l-0.6-1l-1.4,1l-1.9-0.3l-0.3,1.1l0.2,2.2l-2.2,1.2l-2.3,4.2l2.6,5.2l1.1,5.7l-0.6,3
	l-3.3,4.8l0.5,2.3l-0.9,2.7l-1.2,1.1l-1.9,0.5l-0.2,0.8l4.9,7.5l-1,4.1l-2.1,3.5l-2.4,9.2l1.9,2h0.7l0.7-1l0.5,0.2l3.5,0.1l0.3,0.3
	l2.7,4.3l1.1-0.5l0.8-1.4l0.9-3.4l-0.9-3.2l2.1-4.6l-1.9-0.9l-0.6-1.1l0.9-1.5l0.5,0l1.7-0.8l0.2-3l0.1-2.4l-1.8-4.8l-0.2-2.2
	l0.5,0.3l1.4-0.7l0.7,1l-0.4,0.9l-1.5,0.1l0.2,1.3l1.6,3.7l2.8-0.5l1.4,0.5l1.2,2l0.4,2l2.5,2.1l0.5-0.3l1.3,0.9l2.3,0.2l2.9-3.3
	l0.8-2.7l-0.8-6.7l-1.4-2l-1.9-1l-0.5-1.9l1.3-5.5l3.7-7.1l0-1.7l-2.1-3.2L175.2,430.5L175.2,430.5z M131.7,443.6l1.1-1.8l-0.2-2
	l3.2,3.4l2,4.2l-1.6,1.9l-1,0.2l-2.9,1.5l-0.4-0.8l1.6-3.3l-0.6-1.5L131.7,443.6L131.7,443.6z M121.3,453.1l1,2.6l-3.9,3.9l-0.8,1.4
	l0.1,2.2l-1,1.1l-3.5,0.5l-0.9-2.8l1.8-0.7l-1.3-1.2l3-1.5l-1.8-3.9l1.9-1.8L121.3,453.1L121.3,453.1z M119,462.9l0.2,0.4l-1.5,2.3
	l3.3-0.8l0.8,1l0,1.3l-0.3,0.3l-1.5,1.1l3.3,6.7l2.2,2.3l-0.6-5.8l4.1-6l-3.4-2.4l0-1.9l-1.3,0.8l-0.8-0.5l0.7-2.3l-0.2-2.9
	l-0.7-0.3l-3.3,3.2C120.1,459.4,119,462.9,119,462.9z M139.2,471.6l-1.4-1.9l3.5-2.7l0.4,0.6l-0.4,1.4L139.2,471.6z M148.1,498.8
	l1.9,3.9l-1.7,0.8l-1.9-0.1l-1.3-1l-2-4.5l0.5-0.5l1,0.7l-0.4-2l0.5-0.6l-1.8-3l1-2.8l5.9,5l-0.1,2.4l-1.3,1L148.1,498.8
	L148.1,498.8z M141.1,479.6l-0.1,1.6l0.1,0.4l-0.6,2.1l-4.9-0.1l0.9-1.5l-0.1-1.5l-2.1-1l-1.5-2l1.6-2.1l-0.7-6.1l0.9-0.9l2.2,1.6
	l0.6,0.1l3.1,7.8l0.1,0.3L141.1,479.6L141.1,479.6z M125.9,491.4l-1.3,1.6l-0.1,2.9l-2.1-4.2l-0.3-2.2l5.2-3.3
	C127.3,486.3,125.9,491.4,125.9,491.4z M135.9,491.7l-0.2-1.5l-2.7-0.3l-0.3-0.4l2.4,0l0.7-0.6l0.3-3.3l1.2-1.3L135,484l-0.2-0.9
	l1.1-1.8l-2.6-1.4l-1.1-2.1l0.7-1.6l0.8-0.6l-0.7-5.8l2.1-2.6l0.1-0.1l3.3-1.5l-2.5-3.1l0.4-2.3l-2.4-2l-2.4,0.9l-0.3,2.8l-2.3,1
	l0.7,3.7l-3.6,5.5l1,6.7l1.6,3.3l0.2,4.6l-3.2,7.4l0.7,0.9l0.5,4.9l1.4,1.6l2.2,1.2l1.9-0.7l0.6-1.5l1.8-1.3l0.2-1.4l0.7,0.5
	l1.9-2.8l-0.1-1.8L135.9,491.7L135.9,491.7z"/>
<path id="BD-E" class="st4" d="M154.3,165.6l1.1,5.1l0,0l0.2,0.6l0,0l1.4,2.7l0,0l0,1.1l0,0l-0.5,2.4l1.1,1.8l0,0l-0.2,0.1l0,0
	l-0.4,0l0,0l-0.6,0.4l0,0l-1.1,0.7l0,0l0,0.6l0,0l2.1,5.5l2,2.1l2.5,1.3l1.1-0.1l0,0l0.3,0.6l0,0l-1.5,0.2l-0.8,1.1l0,0l-0.1,0.8
	l0,0l1.3,1l0,0l0.3,0.1l0,0l0.6-1.1l1.5,1.2l1.2-1.1l0.9,0.9l0.1,2.1l0.6,0.4l0,0l0.2,0.4l0,0l-0.4,1l0,0l-1,0.6l0,0l1.6,1.8v1.4
	l0,0l0.5,0.4l0,0l0,1.2l-1.2,0.8l0,4.1l-1.9,0.9l0,0l0,0.6l0,0l1.4,4.4l0,0l-0.2,0.4l0,0l-0.7,0.4l0,0l-0.2,0.3l0,0v0.9l0,0
	l-0.1,0.3l0,0l-2.2,1l-0.1,1.7l0,0l-0.2,0.2l0,0l-0.4-0.2l0,0l-0.6,0.3l0.4,0.6l0,0l0.8,0.2l0,0l0.4,0.1l0,0l0.4,1.3l-0.9,1.9l0,0
	l0.1,0.3l0,0l0.7-0.3l0,0l0.1,0.2l0,0l-1.5,1.1l-0.1,1.2l-1.6,1l0,0l0.6,1l0,0l0.8,3.1l0,0l0.6,0.2l0,0l1.2-0.3l0.7,3.5l-1.6,2.7
	l1.9,1.9l0,0l0.2,0.5l0,0l0,1.8l1.1,1.9l0,0l0.1,0.6l0,0l-0.6,4l0,0l0.1,0.8l0,0l1.4,6.5l0,0l-0.1,0.2l0,0l-1.2,0.3l0,0l-0.3,0.4
	l0,0l0.4,0.7l0,0l0.3,0.2l0,0l1.6-0.2l0.4,1.3l1.1,0.7l-0.3,2.9l0.6,3.5l-0.9,1.6l-4,3.2l0,0l-0.4,0l0,0l-1-0.2l0,0l-0.6,0.1l0,0
	l-4.3,3.3l-0.8,6.5l0,0l0.2,0.3l0,0l0.7,0l0,0l0.4,0.6l0,0l0.1,2l0,0l0.1,0.4l0,0l-0.7,3l0,0l0.1,0.2l0,0l0.7-1.3l2.7,4.9l0,0
	l-1,0.5l0,0l-1.1,0.3l-1.1,1.5l0,0l-1.2-0.1l0,0l-1.3,0.5l0,0l-1,0.1l0,0l-4.1-0.2l0,0l-0.3,0.3l0,0l-2.6-0.2l-1.2,0.8l0,0l-0.5,0
	l0,0l-1.3-0.1l0,0l-0.6-0.9l0,0l-3-0.2l0,0l-1.3-0.8l0,0l-11.9-9.2l0,0l-1.1,0.3l0,0l-3.8-2.7l0,0l-0.4-0.5l0,0l-1.1-1.8l-5.2-2.1
	l0,0l-0.8-0.2l-0.7,1.2l0,0l-0.8,2.6l-2,1.3l0,0l-0.9-0.4l0,0l-1.3-4l0,0l-0.3,0l0,0l-0.9,1.6l-1,0.5l-3.9-1.4l-2.3,0l0,0l-0.3-1.2
	l0,0l-3-1l-1.8-6l0,0l-0.3-0.4l0,0l-2.1-6.5l0,0l-0.6-1l0,0l-5.2-0.5l0,0l-0.8-0.2l0,0l-0.8-0.4l-1.7,0.8l0.2-1.1l0,0l-0.1,0l0,0
	l-0.9,0.3l0,0l-0.2,0.2l0,0l0.2,1.1l0,0l-0.1,0.1l0,0l-3,1.2l0,0l-0.2,0l0,0l0.7-1.3l0,0L82,260l0,0l-1.3,0.5l0,0l-0.4-0.1l0,0
	l-7.1-2.5l-2.9-3l-2.2-4.1l0.4-5.9l-1.4-3l-1.6-1.2l-3-0.6l-4.1,0.9l-0.4-0.9l-1.7-0.2l-0.4,0.6l-1.4-0.4l-0.3-1.1l-1.5-0.2
	l-1.4,3.2l-2.5-4.9l-2-0.1l-5.5-3.3l-2-0.5l-3.3,1l-2.3-0.1l-3.2-1.1l-5.4-5.7l-7.1-2.2l-2.3-3.1l-2.6-1.6l-4.1-4.4l-5.4-9.1
	L0.4,204l5.1-5.6l0.8-2l-0.6-0.9l0.7-1l-0.4-1l1-0.1l0.8-1.2l1.5,0.3l0.1-2.6l1.4-1.8l1.2-1l1.2-1.9l1.6-0.6l-0.2-1.2l0-1.2
	l-0.7-0.7l1.5-0.4l-2.8-2.8l-0.1-1.9l1.4,0.3l2.4-2.1l4.5-0.6l3.3,4.2l1.3,2.3l0.2,0.9l2,0.2l0.4,1.5l1.7-1.1l2.4-1.1l-2-1.9
	l0.9-0.7l0.5-2.2l2-1.3l2,1.4l1.6-0.8l-0.7-1.7l0.4-0.7l1.9-0.5l-0.4-2l1-1.4l1.1,0l1.6-3l-1.6-1.5l1.5-3l-0.9-4.8l1.9-1.6l-0.4-2.3
	l-1.3-1.2l0.1-2l2.4-0.2l0.6-1.6l2.1,0.2l0.1,0.6l3.4,0.5l-0.1,1.1l2.2-0.4l-0.1,1.5l0.7,0.2l1.3-0.2l1.1-1.5l2.4-1.2l5,0.6l1.1-1
	l2.5,0.1l2.2,0.9l0.3,1.3l1.6,1.1l2-1.4l0.4,1.1l2.4,0.8l1-0.3l1.6-3.1l1.2-0.5l0.8,1.1l1.2,0l1,2.1l1.9-0.4l1.4,0.5l0.2,1l0.8,0.3
	l0.6-1.8l1.7,0.1l-0.1-1.7l-1-0.2l-0.1-1.6l1.3,0.5l0.9-0.6l-0.7-2.2l0.3-1.5l2.2-1.6l0,0l3.3,3.1h7.2l0.9,1.5l5.8,1l4.5-0.5v1.5
	l-1.3,2l0.4,2l1.3,3l3.2,2l1.3,3.5l2.7,1l2.7-1.5h2.7l3.1,3.9l2.2,1.5h0.9l0.9-1.5h2.7l8.1,4.4h1.8l4.1-2.5L154.3,165.6L154.3,165.6
	z"/>
<path id="BD-F" class="st5" d="M154.3,165.6l-4.6,0.5l-4,2.5h-1.8l-8.1-4.4h-2.7l-0.9,1.5h-0.9l-2.2-1.5l-3.2-3.9h-2.7l-2.7,1.5
	l-2.7-1l-1.3-3.5l-3.1-2l-1.3-3l-0.4-2l1.3-2v-1.5l-4.5,0.5l-5.8-1l-0.9-1.5h-7.2l-3.3-3.1l0,0l0.8-0.8l1.9,0.4l0.4-2.1l-2,0
	l-0.6-1.1l-0.7,0.4l-1.8-0.6l-1.1,0.6l-0.7-1l-1.1,0.8l-1.8-3.3l-1.4,0.2l-0.2,1.1l-1.5-1.6l-0.1-1l-2.6-1.5l0.1-3.1l-2.6-1.7
	l1.3-0.5l0.6-1.2l-0.8-1.6l1.3-1.3l-0.3-1.7l-0.7-1.6l-1.6-0.2l-0.4-3.4l-1.2-0.2l-1.4,0.9l-1.8-0.9l0,1.3l0.9,0.9l-0.3,0.7
	l-2.4,0.7l-0.4-1.7l-2.6,0.5l-0.1,1.8l-1.1,1l-3.2-0.1l-0.5-0.9l-0.9,0.3l-0.2-1.8l-2.2,0l-1.4-1.8l-1.1,0.9l-1.9-0.2l-2.3-1.3
	l-1,1.1l-0.2-2.5l-0.7-0.9l-1,0.7l-1.2-0.9l-1.3-1.6l0.3-2.4l-2.6,0l-1.3-1.6l-1.1-0.1l0.4-2.4l0.7-0.8l-0.1-3.4l-4.7-0.9l-0.1-1.4
	l-1.1,0.1l-0.2-1l-1.6-0.4l0.3-1.8l-1.6-0.6l-0.1-0.8l-3.2-1l-0.6-1.6l-4.5-3l0.4-1.8l-0.5-1.2L24,86L23,86.1l-0.4,0.7l-0.8-0.3
	l-0.5,1.2l-1.4-0.3l-1,1.2l-1.3-1.4l-0.8,0l-1.1,1.5l-0.9-0.2L13.6,90l-0.7-0.5l-0.2-1.6l-2.3-0.3l0.3-1.4l-0.9-0.3l-0.6-1.3
	l0.7-1.1l-0.8-0.7l1.1-1L9,78.5L9.5,78L8,77.5l-0.2-0.9l-0.2-1.8l0.7-1.2l1.7-0.5l0.5-2.4l1-0.9l-0.4-1.1l2-2.4l-0.3-1.2l4-1.3
	l-1.3-0.9l0.5-0.6l0.3-0.8l-0.2-1.1l0.8-0.4l-0.1-0.9l-1.7-1.5l-0.6-1.2l1.8-3l-0.4-0.3l0.4-2l1.6-0.5l1-0.8l2-1l0.9-0.8l-0.3-0.8
	l1.4-0.7l0.4,0.5l2.1-0.3l1.6-1.5l0.6,0.5l1.9-0.6l1.2-1.3l1.8-0.6l0.8-2.1l-0.8-0.5l0-3.8l3.5-3.3l2.5-0.2l-0.9-1.5l0.7-0.6l2.2,0
	l1.9-3.8l0.4,1.5l2.3,1.1l0.3-1.1l1.7,0l-0.3,1.3l1.8-1.2l-0.8-0.4l0-0.9l0.4-1.6l-0.7,0.1l-0.7-1.2l0.4-0.8l-1.3-0.3l-0.2-0.8
	l0.4-1l0-0.9l-1.8-1.9l0.3-0.9l-4.3-0.5l-1.4,0l-1.7-2.1L36,16.7l-2.2-0.8l-1.1,4.3l-0.6-2.1l-1.4-1.3l0-1.6l1.7-1.9l0.8-3.7
	l1.1-1.3l-0.3-1.5l0.7-2l1.2-1L35.8,3L38,0.6l1,6.8l1.1,2.3l1.4,1.1l1.1-1.2l2.2,0.6l0.7,2.8l2.9,0.8l0.2,2.5l3.2-0.7l-0.8,1.2
	l1,0.5l-0.6,1.6l3.7,0.8l-0.2-2.3l2.4,0.1l0.4,3.7l2.3,0.9l-0.3,1l1.4,0.1l0.9,1l1.6-0.4l0,1l0.2,1.5L63.3,27l1.4,1.8l0,1.9l0.7,1
	l2.9-2.1l1.3,0.2l1.2,2l-0.4,1.5l0.4,2l3.5-1.3l2.1,1.3l-0.6,2.2l0.3,2.1l1.6,0.8L77.4,41l1.3,1.2l3.6-0.5l-1.6-2l0-2l1.9-1.5
	l4.4,0.3l2.2,4.2l1.1,0.7l6.3-0.9l1.7,0.7l0.5-1.5l0.8,0.3l-0.7-2.4l0.7-0.3L99.2,36l-1.1-0.3l-0.1,0.9l-1.8,0.2l-0.9-0.7l-0.7-1.2
	l-1.1,1.1l-0.1-0.9l-1.1-0.3l0-1.6l0.7-0.5l0.7-0.4l-1.4-0.8l-0.1-1.6l-2.2-0.2L89.7,32l-0.5-1.1l-0.4-0.6l-0.2-1.1L87,28.3
	l-0.8,0.5l-0.6-0.8l-0.1-0.6l-0.2-0.8L86,26l0.1-1.2l-1.4-1.1l2.2-0.2l-0.4-1.5l0.2-0.9l1.7,0.8l0.6-1.1l-0.4-1.2l1-1.2l2.4,1.3
	l-0.4,1.1l1,1.8l0.6-0.3l0.6,0l0.6,1.1l1.3-0.1l1.1,1.9l0.8-0.5l3.1,0.8l1-0.5l0.8,0.6l-0.5,2.4l-0.9,0.5l1.5,0.4l0.4,2.5l-0.2,0.9
	l1.6,1.1l2.1-0.2l-0.1,1.1l-0.2,1.1l-0.9,1.2l-1.7-3l-0.3,1l0.6,1.6l-0.6,0.9l2.1,1.6l-0.2,1.4l1.7,1.9l0,1.9l0.8,0.9l-1.4,3l2,2
	l-0.8,0.3l0.6,1.7l1.3,1.4l2.3,0.7l1-0.5l2,0.4l2.6,3.2l1.4,0.1l-1,2.9l1.5,0.3l0.5,1.2l2,0l2.2,1.3l2.3,2.7l4.3,0.4l-0.1-1.4
	l1.4-1.1l0.2-0.9l1.5-0.6l0.9,1l-0.6,2.1l0.5,0.7l3.7,1.2l1.4-1l1.4,0.6l1.2-0.8l2,0.3l1.1,0.6l-1.2,1.1l0.2,1.9l1.3,0.6l1.1-1.4
	l0.8-0.1l1.2,0.4l0.1-1.9l-0.8-0.9l0.5-2.2l0.1-1.3l0.6-0.8l1.9-0.9l1.4-0.9l2-0.2l-1.5-1.5l0.6-1.2l-1-1.7l-0.7,0.7l-0.5,0.5
	l-0.8,0.7l-1.4-1.3l0.1-0.7l0.3-0.6l1.6,0.7l1.3-1.3l-0.4-0.9l-1.3,0.1l-0.6,1.1l-1.3-4.2l0.5-0.4l1.3,0.7l-0.1-0.8l0.1-1l0.5-0.8
	l0.5,0.7l0.9,0l1.7,0.7l0.7-1.5l-1.7,0l-1.1-0.8l0.4-0.9l1.2,1.1l0.5-0.6l-1.5-2.1l0.1-1.8l1.8,1l1.5,0l0.8-1.8l0.7,0.9l0.3,0.6
	l0.1,1.1l-1.3,0.3l-0.3,0.7l1,0.4l0.2,1.7l1.4,1l-1.6,0.4l-0.3,0.8l2.5,0.8l0.7-1.5l0.4,1.3l2.6-0.1l1.9,2.9l-1.1,1.9l2.6,0.4
	l-0.1,2.3l1.2-0.1l-0.3,0.9l0.8,1.8l-1.4,0.3l0.4,0.9l-0.2,0.7l0.5,0.6l0.8-0.6l0.8-0.3l1.2,3.4l-0.8,1.7l0.5,0.8l1.6,0.4l-0.5-1.7
	l0.5-1.3l0.9,0.8l0.4,1.6l2.1,1.2l-0.3,0.7l-2.9,0.6l0.9,1.8l-1.7-0.5l-0.5,0.8l1.7,0.8l2.9-0.7l1.2,0.3l-0.8,2.2l-4.1,5.1l0.2,1.4
	l-0.9,0.3l0,1.6l-1.5,2.1l1.4,1l1.3,4.1L171,95l0.6,1.3l1.7,0.5l-0.3,2l2.1,3.2l1.1,3.6l-1.4,6.3l0.2,1.8l-1.5,0.8l0.6,2.5l-0.8,2.2
	l0.1,2.7l-2.5,5.1l-5.4-1.7l0,0l0.1,0.1l0,0l0.4,1.3l0.9,0.6l-0.3,2.2l0,0l-1.6,0.9l0,0l-1.1,0l0,0l-0.2,0.1l0,0l-2.4,2.5l3,7.3
	l-0.6,2.5l0,0v0.3l0,0l0.6,1.5l-1,1.2l0,0l-0.2,0.1l0,0l-3.8,0.4l-2.4,4.5l0,1.6l-2.1,2.9l0.1,3.1l0,0l-0.1,0.3l0,0l-1.1,2.1
	l0.7,1.1l0,0l0.3,0.2l0,0l0.3-0.2l0,0l0.1,0.2l0,0l0.2,2.5L154.3,165.6z"/>
<path id="BD-G" class="st6" d="M307.4,149.7l0.9,0.5l-0.2,0.5l2.9,0.4l1.5,1l1.6,0.2l0.8-0.6l0.7,0.9l2.6,0.3l1.5-0.6l1,1.4l1.5,0.7
	l2.4-0.1l0.3,1.7l2.7-0.2l0.9-1l4.3-0.4l0.8-1l1.1-0.2l0.1-1.3l3.5-0.3l0.1,0.6l-1.5,1.1l0.2,1.4l1.9,0.1l0.2,1.7l1.5,0.6l3.2-1.6
	l1.6-0.1l1.1-2l3.4,0.8l0.8-2.9l2.7,1.2l5-1.5l3.1,0.5l5.1-0.9l6.2,1.2l2.4-1.5l1.5,0.8l4.1-0.7l6.1,2.8l0.5,0.4l-0.5,1.4l2.6,0.9
	l1.9,1.5l1.5-0.7l2.7,0.9l-1.9,0.3l2,2l7.6,2.5l1.4-1l1.7,0.4l0.8,1.1l-0.9,1.6l2.1,0.1l0.5,0.7l5.4,1.4l-0.9,3.6l0.5,2.4l1.6,0.6
	l1.4-0.9l1.2,2l-1.4-0.2l-0.6,0.6l1.5,1.1l1,0l0.9-1.2l0.2,3.3l1.2,1.9l-0.9,0.4l0.5,1.8l-0.8,0.9l-2,0.3l-2-0.7l-0.2,1.5l-1.3,0.4
	l-0.1,0.8l-2.2,0.1l-1.3-0.4l-1-1.2l-1.3-0.5l-0.5-1l-0.9,0.1l-1.9-1.3l-1.5-0.2l-2-2.6l-1.4,1.6l-1.5-0.1l-0.9-0.1l-0.2-0.7
	l-0.9,0.4l-0.4,1.1l0.9,2l-0.9,0.9l0.3,2.2l1.2,0.8l2.1,1.4l0.5,3.4l0.8,0.6l-0.6,2.1l0.7,0.7l-0.9,1.9l1.2,0.7l-3.3,4.9l-1.1,3.2
	l-1.4,7.9l-0.5,8.2l-4.9-2.4l-0.5-1.1l-1.6,1l0.5,1.2l-0.9,1.2l1,3.2l-0.5,0.8l0.9,1.4l-0.4,0.8l0.9,0.9l-0.6,0.9l-2.6-0.2l-1.5,3.8
	l-3.2,1.4l-7.4-0.9l-1-1l-1.3,0.7l-1.1-0.3l-0.9,0.7l3.2,4.4l-0.3,1.9l-2-1.1l0-1.4l-1.6-1.1l-3.4,2.1l2,7l-2.8,9.8l-0.2,3l-2,0.5
	l-0.9-1.1l-0.6-2.7l-2.8-2.4l0.8-0.5l-0.1-1.2l-0.6-0.8l-2.5,1.3l-0.7-1.1l-1.5-0.2l-4.5-2.7l1.8,10.6l-2.9,0.1l-2-1l-0.7-1.1
	l-1,0.3l-0.7-1l-1.6-4.1l-0.1-2.1l-1.8,1.6l1.1,2.7l-0.4,1.2l-1,0.1l0,2l-1,1.6l0.6,2.4l-0.8,1.4l-2.1,0.8l-1.1-0.4l-0.6,0.4
	l0.2,1.5l-0.8,0.3l-4,0.1l-4.6-1.3l-0.5-0.9l-4.4,0l-3.2-1.3l-3,0.2l-0.1,2.9l1.8,3l-0.5,2.3l-1.5,2.2l0.4,3.2l-6.7-2.2l0,0
	l-0.9-0.5l0.1-1.6l1,0.1l0.5-2.4l-0.9-2l-1.5-0.2l0.3-3.6l-1.2,0.3l-0.9-0.7l0.3-1.3l1.9-0.7l-1.9-0.7l0-1.6l-0.9-0.2l1.3-2l0.3-1.8
	l2.3-1.1l1,0.3l-0.2-1.6l-2.9,0.9l-0.7-0.6l0.8-1.8l1.1,0.6l0.2-1.2l0.8,0.3l0.9-1.1l0.8,0l0-3l-1.3-0.6l-1,0.5l-1.2,1.7l-0.3,1.6
	l0.5,0.6l-1.1,0.2l-7.4-1.4l-2-2.6l0,0l1.9-2.7l-0.7-0.4l-2.8,1l1.2-3.7l5.9,0.3l0.2-1.5l-2.1-3.1l0.4-0.9l1.3,0.2l2.1-1.5l-1.6-2.8
	l-1,0.2L301,230l-0.2-1.4l2.1,0.1l0.3-0.8l-1.3-4.8l-1.4-0.1l0.8,1.3l-1.6-0.6l-1.6,2.2l-0.2-1.5l1-0.5l-2.5-0.7l-1,0.8l-0.6-0.3
	l2-2.4l0.8,1.4l0.7-0.6l2.5-3l1.9-4.6l-3.4-1.8l0.6-0.9l-0.3-1.2l-2.2-0.9l-0.2-1.5l1.8,0.9l0-0.9l0.9,0l0.2-1.7l1.4,0l0.8-0.9
	l-1-1.5l1.8-0.3l0.1-1.6l-1.9-0.8l0.8-1l-0.5-1.6l-1.5,1.6l-2.5-1.6l-1.7,0.9l-0.4-0.7l-1.6,0l1-0.8l-0.4-1.4l0.7,0.4l0.4-0.7
	l-0.7,0.1l0-0.7l-1.2-0.1l-0.2-0.6l0.9-0.6l1.4,0.3l-0.1-0.9l1.3-0.9l-1.4-0.8l1.4-2.3l-0.2-1.9l-1.5-0.9l-1,1.4l0.3,0.8l-1.3,1.1
	l1.2,1.5L293,192l-1.5-2.4l0.6-2l0.8-0.6l-0.4-0.8l-1,0l-1.2-3.8l-2.1-1.6l-3.5-0.5l-1.2,2.3l-0.9-0.2l-0.4-1.1l-1.3,0.4l-1.1-2.2
	l-3.4-0.1l-0.1-2.6l-0.6,0.1l2-0.9l0.4-1.2l-1-1.4l-1.6-0.4l0.3-3l-1.2-1.7l0.5-0.9l2.4-1l-2.9-0.9l-0.2-3.4l1.4-0.3l1.2,1.1
	l1.5-0.5l-0.3-1.9l-2-1.8l0.6-1.1l-0.2-2.9l1.6-0.7l-0.5-1.4l0,0l10.7-2.9l4.6,0.4l6.7-0.7l4.5,0.5l2.1-1L307.4,149.7z"/>
<path d="M230,218.9"/>
</svg>
